HIERARCHY
ROOT Hips
{
    OFFSET 0.000000 0.000000 0.000000
    CHANNELS 6 Xposition Yposition Zposition Zrotation Xrotation Yrotation
    JOINT Spine
    {
        OFFSET -0.000000 7.750029 0.000000
        CHANNELS 3 Zrotation Xrotation Yrotation
        JOINT Spine1
        {
            OFFSET -0.000000 19.767460 0.000000
            CHANNELS 3 Zrotation Xrotation Yrotation
            JOINT Neck
            {
                OFFSET -0.000000 19.686279 1.789662
                CHANNELS 3 Zrotation Xrotation Yrotation
                JOINT Head
                {
                    OFFSET -0.000000 13.231757 -1.890251
                    CHANNELS 3 Zrotation Xrotation Yrotation
                    End Site
                    {
                        OFFSET -0.000000 23.628138 0.000000
                    }
                }
            }
            JOINT LeftShoulder
            {
                OFFSET 3.736819 16.910755 -0.280982
                CHANNELS 3 Zrotation Xrotation Yrotation
                JOINT LeftArm
                {
                    OFFSET 13.626117 0.000000 0.000000
                    CHANNELS 3 Zrotation Xrotation Yrotation
                    JOINT LeftForeArm
                    {
                        OFFSET 31.364786 0.000000 0.000000
                        CHANNELS 3 Zrotation Xrotation Yrotation
                        JOINT LeftHand
                        {
                            OFFSET 23.389509 0.000000 0.000000
                            CHANNELS 3 Zrotation Xrotation Yrotation
                            End Site
                            {
                                OFFSET 14.176883 0.000000 0.000000
                            }
                        }
                    }
                }
            }
            JOINT RightShoulder
            {
                OFFSET -3.821718 16.910755 -0.280982
                CHANNELS 3 Zrotation Xrotation Yrotation
                JOINT RightArm
                {
                    OFFSET -13.626117 0.000000 0.000000
                    CHANNELS 3 Zrotation Xrotation Yrotation
                    JOINT RightForeArm
                    {
                        OFFSET -31.364786 0.000000 0.000000
                        CHANNELS 3 Zrotation Xrotation Yrotation
                        JOINT RightHand
                        {
                            OFFSET -23.389509 0.000000 0.000000
                            CHANNELS 3 Zrotation Xrotation Yrotation
                            End Site
                            {
                                OFFSET -14.176883 0.000000 0.000000
                            }
                        }
                    }
                }
            }
        }
    }
    JOINT LeftUpLeg
    {
        OFFSET 9.451255 0.000000 0.000000
        CHANNELS 3 Zrotation Xrotation Yrotation
        JOINT LeftLeg
        {
            OFFSET -0.000000 -41.898624 0.000000
            CHANNELS 3 Zrotation Xrotation Yrotation
            JOINT LeftFoot
            {
                OFFSET -0.000000 -38.481331 0.000000
                CHANNELS 3 Zrotation Xrotation Yrotation
                JOINT LeftToeBase
                {
                    OFFSET -0.000000 -6.143315 14.176883
                    CHANNELS 3 Zrotation Xrotation Yrotation
                    End Site
                    {
                        OFFSET -0.000000 0.000000 3.780502
                    }
                }
            }
        }
    }
    JOINT RightUpLeg
    {
        OFFSET -9.451255 0.000000 0.000000
        CHANNELS 3 Zrotation Xrotation Yrotation
        JOINT RightLeg
        {
            OFFSET -0.000000 -41.898624 0.000000
            CHANNELS 3 Zrotation Xrotation Yrotation
            JOINT RightFoot
            {
                OFFSET -0.000000 -38.481331 0.000000
                CHANNELS 3 Zrotation Xrotation Yrotation
                JOINT RightToeBase
                {
                    OFFSET -0.000000 -6.143315 14.176883
                    CHANNELS 3 Zrotation Xrotation Yrotation
                    End Site
                    {
                        OFFSET -0.000000 0.000000 3.780502
                    }
                }
            }
        }
    }
}
MOTION
Frames:    6
Frame Time:    0.010000
-5.047889    91.349640    -14.369908    5.552379    0.923453    163.174820    9.497478    3.172771    3.924237    -9.016361    -7.862505    3.566965    -5.933849    38.202080    6.253345    -2.446254    -29.342285    4.224962    10.041397    -4.318851    -11.018587    -40.866867    40.383911    -23.388098    19.511211    -37.072872    -93.412239    -6.994565    -17.981071    -8.742957    -14.541999    -22.061733    20.360825    37.957867    -19.810467    35.076859    -29.045706    -56.129505    72.682625    -9.956746    -41.253052    -7.581448    6.843184    -11.767275    -11.737262    -2.526905    22.778706    -8.332647    -2.924829    -6.878206    17.696993    0.000000    0.000000    0.000000    -6.678289    14.021111    3.373389    0.010065    23.702662    5.488108    7.528020    10.747894    -12.147325    0.000000    0.000000    0.000000    
-5.093189    91.354439    -13.977345    5.592593    0.660455    163.291061    9.892212    3.423092    4.403216    -10.041420    -7.307501    4.056664    -5.992846    36.271416    5.037219    -0.343042    -27.794804    3.898613    9.981513    -4.941167    -11.019962    -39.857018    40.707169    -25.495529    20.565926    -37.656097    -92.356331    -7.382792    -17.891689    -9.053959    -13.861293    -21.310076    21.160534    39.576977    -16.475674    35.900093    -32.253742    -55.576279    66.932899    -2.630044    -40.839703    -6.824535    7.034175    -12.302849    -11.625773    -2.597352    22.787724    -7.987220    -3.111516    -6.634068    17.467583    0.000000    0.000000    0.000000    -6.610212    13.770857    2.930635    0.274379    23.576139    6.119882    7.342473    10.081285    -12.791909    0.000000    0.000000    0.000000    
-5.115929    91.360703    -13.573679    5.682528    0.403856    163.262207    10.165562    3.602874    4.941954    -10.667836    -6.577926    4.647669    -6.306539    35.851353    4.602807    0.912270    -28.740940    3.892488    9.609056    -5.450135    -11.102707    -38.712345    40.287518    -27.408381    20.776648    -37.436016    -92.140228    -7.112730    -17.500648    -9.126620    -13.797469    -19.979694    21.969370    39.825771    -15.559525    36.311508    -25.972155    -53.587761    68.244400    -2.073833    -41.326031    -11.017590    7.307004    -12.793978    -11.238658    -2.596609    22.843594    -8.046865    -3.343735    -6.469074    17.513371    0.000000    0.000000    0.000000    -6.523413    13.446629    2.225823    0.387977    23.412825    5.899040    7.080040    9.903802    -12.396298    0.000000    0.000000    0.000000    
-5.132125    91.352371    -13.142255    5.735735    0.032213    163.186584    10.203310    3.601986    5.507195    -10.942314    -5.725774    5.279963    -6.541096    35.283516    4.023782    1.877168    -29.422668    3.666591    9.069213    -6.149582    -11.422569    -37.782345    40.726551    -29.153252    21.949221    -38.334808    -91.166183    -7.095006    -17.714643    -9.287661    -13.726717    -18.837088    22.639771    39.497993    -13.399698    36.490608    -23.929379    -52.212997    63.875835    5.319332    -42.245644    -10.402421    7.628107    -13.336934    -11.294027    -2.843095    22.703909    -7.208203    -3.525400    -6.276022    17.306540    0.000000    0.000000    0.000000    -6.464672    12.871943    1.312965    0.443303    23.430027    6.079844    6.648844    9.712669    -12.030256    0.000000    0.000000    0.000000    
-5.130123    91.348938    -12.708992    5.825712    -0.296456    163.118469    10.111907    3.542376    5.995686    -10.981997    -4.779118    5.849486    -6.763827    35.006065    3.636292    2.518552    -30.562763    3.516352    8.542585    -6.761837    -11.764784    -37.522675    39.958031    -30.396580    21.905569    -37.972775    -91.315086    -6.958732    -17.278610    -9.202784    -13.698575    -17.162521    23.093130    37.626263    -11.583935    37.036510    -21.243786    -49.322285    58.465691    9.912859    -41.452690    -9.636994    7.978639    -13.937224    -10.707171    -2.844615    22.805605    -6.741645    -3.653852    -5.995016    16.701353    0.000000    0.000000    0.000000    -6.441175    12.325248    0.463859    0.586938    23.496382    6.337489    6.154534    9.518486    -11.625562    0.000000    0.000000    0.000000    
-5.103274    91.344437    -12.312544    6.028703    -0.623026    163.122910    9.906940    3.430282    6.440420    -10.628595    -3.911487    6.373797    -6.987798    33.827560    3.139298    2.981525    -29.731478    3.210033    7.902044    -7.153587    -12.117232    -37.382420    38.865505    -31.613548    21.303020    -37.165680    -91.896965    -6.689372    -16.745771    -9.048615    -14.193445    -16.504343    23.551840    36.651855    -11.413484    37.122868    -14.216110    -44.731056    54.904926    12.299392    -40.014404    -9.664197    8.481006    -14.448084    -10.223994    -2.940028    22.905102    -7.088278    -3.679741    -6.026871    16.917164    0.000000    0.000000    0.000000    -6.316535    11.836799    -0.549055    0.667600    23.601906    6.655587    5.981856    9.344428    -11.050986    0.000000    0.000000    0.000000    
